<svg xmlns="http://www.w3.org/2000/svg" viewBox="0 0 120 140" width="480" height="560" aria-label="FalaInstrutor">
  <path d="M18,24 Q18,15 27,15 L93,15 Q102,15 102,24 L102,76 Q102,106 60,132 Q18,106 18,76 Z" fill="#1f9d63"/>
  <path d="M24,28 Q24,21 31,21 L89,21 Q96,21 96,28 L96,74 Q96,99 60,123 Q24,99 24,74 Z" fill="#27b074"/>
  <path d="M31,33 Q31,27 37,27 L83,27 Q89,27 89,33 L89,72 Q89,94 60,114 Q31,94 31,72 Z" fill="none" stroke="#7fe0b0" stroke-width="2"/>
  <rect x="51" y="47" width="18" height="50" rx="1.5" fill="#ffffff"/>
  <rect x="37" y="61" width="46" height="18" rx="1.5" fill="#ffffff"/>
  <path d="M42,45 A18,15 0 0 1 78,45 Z" fill="#f5b21a"/>
  <ellipse cx="60" cy="45" rx="23" ry="5.5" fill="#f5b21a"/>
</svg>
